<?xml version="1.0" encoding="utf-8"?>
<!-- Generator: Adobe Illustrator 21.1.0, SVG Export Plug-In . SVG Version: 6.00 Build 0)  -->
<svg version="1.1" id="Layer_1" xmlns:sketch="http://www.bohemiancoding.com/sketch/ns"
	 xmlns="http://www.w3.org/2000/svg" xmlns:xlink="http://www.w3.org/1999/xlink" x="0px" y="0px" viewBox="0 0 128.16 128.16"
	 enable-background="new 0 0 128.16 128.16" xml:space="preserve">
<title>MeisterTask 2</title>
<desc>Created with Sketch.</desc>
<g id="Logos" sketch:type="MSPage">
	<g id="MeisterTask-2" transform="translate(-470.000000, -57.000000)" sketch:type="MSArtboardGroup">
		<g transform="translate(472.000000, 59.000000)" sketch:type="MSLayerGroup">
			<g id="MeisterTask" transform="translate(52.593750, 7.159091)" sketch:type="MSShapeGroup">
				<path id="meister" fill="#3D474D" d="M-34.23,116.9l1.349-9.613c0.337-2.614-1.434-4.638-4.048-4.638
					c-1.602,0-3.204,0.843-4.216,2.024c-0.675-1.265-2.024-2.024-3.626-2.024c-2.614,0-4.975,2.108-5.397,4.638l-1.349,9.613
					c-0.084,0.506,0.337,0.843,0.675,0.843c0.337,0,0.843-0.253,0.928-0.843l1.349-9.613c0.253-1.687,1.855-3.036,3.542-3.036
					s2.951,1.349,2.698,3.036l-1.349,9.613c-0.084,0.59,0.253,0.843,0.675,0.843s0.843-0.253,0.928-0.843l1.349-9.613
					c0.253-1.687,1.771-3.036,3.542-3.036c1.771,0,2.951,1.349,2.698,3.036l-1.349,9.613c-0.084,0.506,0.337,0.843,0.675,0.843
					C-34.736,117.744-34.315,117.491-34.23,116.9L-34.23,116.9z M-20.654,109.733l0.253-1.855c0.422-2.867-1.602-5.228-4.554-5.228
					s-5.565,2.361-5.987,5.228l-0.675,4.975c-0.422,2.951,1.939,5.228,4.807,5.228c1.687,0,3.457-0.59,4.638-1.939
					c0.169-0.169,0.253-0.337,0.253-0.506c0.084-0.422-0.337-0.759-0.759-0.759c-0.253,0-0.506,0.084-0.759,0.337
					c-0.928,1.012-2.192,1.265-3.204,1.265c-2.108,0-3.71-1.687-3.373-3.626l0.337-2.277h8.095
					C-21.16,110.492-20.738,110.154-20.654,109.733L-20.654,109.733z M-22.172,108.889h-7.252l0.169-1.096
					c0.253-2.024,2.108-3.626,4.132-3.626s3.457,1.602,3.12,3.626L-22.172,108.889z M-18.124,116.9l1.855-13.239
					c0.084-0.506-0.253-0.843-0.675-0.843s-0.843,0.253-0.928,0.843l-1.855,13.239c-0.084,0.506,0.337,0.843,0.675,0.843
					S-18.208,117.491-18.124,116.9L-18.124,116.9z M-17.365,98.264c-0.084,0.59,0.337,1.096,0.928,1.096s1.181-0.506,1.265-1.096
					c0.084-0.59-0.337-1.096-0.928-1.096S-17.281,97.674-17.365,98.264L-17.365,98.264z M-6.74,113.78
					c0.759-5.228-6.999-4.048-6.493-7.336c0.169-1.349,1.434-2.192,3.036-2.192c1.012,0,1.939,0.422,2.445,1.181
					c0.084,0.169,0.084,0.169,0.084,0.169c0.169,0.253,0.337,0.337,0.59,0.337c0.422,0,0.928-0.337,0.928-0.759
					c0-0.169,0-0.337-0.084-0.422c-0.675-1.349-2.277-2.108-3.795-2.108c-2.108,0-4.554,1.265-4.891,3.795
					c-0.675,4.891,7.083,3.542,6.493,7.336c-0.169,1.434-1.687,2.614-3.71,2.614c-1.012,0-1.939-0.337-2.53-1.012
					c-0.084-0.084-0.084-0.169-0.084-0.169c-0.169-0.253-0.337-0.337-0.59-0.337c-0.422,0-0.843,0.337-0.928,0.843
					c0,0.169,0,0.253,0.084,0.422c0.675,1.265,2.445,1.855,3.795,1.855C-9.692,117.997-7.077,116.394-6.74,113.78L-6.74,113.78z
					 M3.716,116.226c0.084-0.422-0.253-0.843-0.675-0.843c-0.59,0-1.265,0.928-2.783,0.928c-1.602,0-2.361-1.012-2.192-2.192
					l1.349-9.697h4.807c0.506,0,0.843-0.422,0.928-0.843c0.084-0.422-0.169-0.843-0.675-0.843h-4.807l0.422-3.373
					c0.084-0.506-0.253-0.843-0.675-0.843s-0.843,0.253-0.928,0.843l-0.422,3.373h-2.445c-0.506,0-0.928,0.422-0.928,0.843
					c-0.084,0.422,0.169,0.843,0.675,0.843h2.445l-1.349,9.697c-0.337,2.108,1.181,3.795,3.542,3.795
					c1.012,0,2.108-0.337,2.951-0.928C3.379,116.816,3.632,116.563,3.716,116.226L3.716,116.226z M15.859,109.733l0.253-1.855
					c0.422-2.867-1.602-5.228-4.554-5.228s-5.565,2.361-5.987,5.228l-0.675,4.975c-0.422,2.951,1.939,5.228,4.807,5.228
					c1.687,0,3.457-0.59,4.638-1.939c0.169-0.169,0.253-0.337,0.253-0.506c0.084-0.422-0.337-0.759-0.759-0.759
					c-0.253,0-0.506,0.084-0.759,0.337c-0.928,1.012-2.192,1.265-3.204,1.265c-2.108,0-3.71-1.687-3.373-3.626l0.337-2.277h8.095
					C15.353,110.492,15.859,110.154,15.859,109.733L15.859,109.733z M14.426,108.889H7.174l0.169-1.096
					c0.253-2.024,2.108-3.626,4.132-3.626s3.457,1.602,3.12,3.626L14.426,108.889z M26.906,104.505c0-0.169,0-0.337-0.169-0.59
					c-0.675-0.843-2.024-1.349-3.12-1.349c-3.12,0-5.06,2.445-5.481,5.397l-1.265,8.938c-0.084,0.506,0.337,0.843,0.675,0.843
					s0.843-0.253,0.928-0.843l1.265-8.938c0.337-2.445,1.687-3.795,3.626-3.795c0.759,0,1.518,0.253,2.024,0.759
					c0.084,0.084,0.084,0.084,0.084,0.084c0.169,0.169,0.337,0.253,0.506,0.253C26.4,105.263,26.821,104.926,26.906,104.505
					L26.906,104.505z"/>
				<path id="task" fill="#00AAFF" d="M36.856,116.226c0.084-0.422-0.253-0.843-0.675-0.843c-0.59,0-1.265,0.928-2.783,0.928
					c-1.602,0-2.361-1.012-2.192-2.192l1.349-9.697h4.807c0.506,0,0.843-0.422,0.928-0.843c0.084-0.422-0.169-0.843-0.675-0.843
					h-4.807l0.422-3.373c0.084-0.506-0.253-0.843-0.675-0.843s-0.843,0.253-0.928,0.843l-0.422,3.373h-2.445
					c-0.506,0-0.928,0.422-0.928,0.843c-0.084,0.422,0.169,0.843,0.675,0.843h2.445l-1.349,9.697
					c-0.337,2.108,1.181,3.795,3.542,3.795c1.012,0,2.108-0.337,2.951-0.928C36.519,116.816,36.772,116.563,36.856,116.226
					L36.856,116.226z M47.312,113.359l0.928-6.156c0.337-2.698-1.096-4.638-4.216-4.638c-1.518,0-3.036,0.59-4.132,1.687
					c-0.253,0.253-0.422,0.506-0.506,0.759c-0.084,0.422,0.253,0.759,0.675,0.759c0.59,0,0.759-0.422,1.349-0.843
					c0.59-0.422,1.349-0.759,2.361-0.759c2.192,0,3.036,1.181,2.783,3.036l-0.169,1.265l-3.542,0.759
					c-2.53,0.506-4.975,1.855-5.313,4.469c-0.422,2.783,1.687,4.301,4.301,4.301C44.445,117.997,46.975,116.141,47.312,113.359
					L47.312,113.359z M45.71,113.359c-0.253,1.771-1.771,3.036-3.71,3.036s-3.12-1.096-2.867-2.698
					c0.169-1.349,1.602-2.445,3.457-2.867l3.626-0.759L45.71,113.359z M58.106,113.78c0.759-5.228-6.999-4.048-6.493-7.336
					c0.169-1.349,1.434-2.192,3.036-2.192c1.012,0,1.939,0.422,2.445,1.181c0.084,0.169,0.084,0.169,0.084,0.169
					c0.169,0.253,0.337,0.337,0.59,0.337c0.422,0,0.928-0.337,0.928-0.759c0-0.169,0-0.337-0.084-0.422
					c-0.675-1.349-2.277-2.108-3.795-2.108c-2.108,0-4.554,1.265-4.891,3.795c-0.675,4.891,7.083,3.542,6.493,7.336
					c-0.169,1.434-1.687,2.614-3.71,2.614c-1.012,0-1.939-0.337-2.53-1.012c-0.084-0.084-0.084-0.169-0.084-0.169
					c-0.169-0.253-0.337-0.337-0.59-0.337c-0.422,0-0.843,0.337-0.928,0.843c0,0.169,0,0.253,0.084,0.422
					c0.675,1.265,2.445,1.855,3.795,1.855C55.155,117.997,57.769,116.394,58.106,113.78L58.106,113.78z M69.659,116.9
					c0-0.169,0-0.337-0.169-0.506l-4.301-6.999l5.313-5.228c0.169-0.169,0.253-0.337,0.253-0.506
					c0.084-0.422-0.253-0.843-0.759-0.843c-0.169,0-0.422,0.084-0.675,0.337l-7.589,7.589l1.855-13.07
					c0.084-0.506-0.337-0.843-0.675-0.843c-0.422,0-0.843,0.253-0.928,0.843L59.287,116.9c-0.084,0.506,0.337,0.843,0.675,0.843
					c0.422,0,0.843-0.253,0.928-0.843l0.506-3.71l2.445-2.445l4.132,6.662c0.169,0.253,0.337,0.337,0.59,0.337
					C69.068,117.744,69.574,117.406,69.659,116.9L69.659,116.9z"/>
			</g>
		</g>
	</g>
</g>
<g id="MeisterTask_1_" sketch:type="MSShapeGroup">
	
		<circle id="BAdge" fill="#FFFFFF" stroke="#000000" stroke-width="2.299" stroke-opacity="0.1" cx="64.068" cy="51.037" r="49.047"/>
	<g id="Check" transform="translate(8.000000, 11.000000)">
		<path id="Fill-1" fill="#00D5FF" d="M33.774,35.801l11.816,11.593l32.772-31.881l8.918,8.695L45.589,64.56L24.856,44.496
			L33.774,35.801"/>
		<path id="Fill-2" fill="#00A9FF" d="M36.672,55.866l-2.898-2.898l2.898-2.898l2.898,2.898L36.672,55.866"/>
		<path id="Fill-3" fill="#00AFFF" d="M33.774,52.967l-2.898-2.898l2.898-2.898l2.898,2.898L33.774,52.967"/>
		<path id="Fill-4" fill="#00B4FF" d="M30.875,50.069l-2.898-2.898l2.898-2.898l2.898,2.898L30.875,50.069"/>
		<path id="Fill-5" fill="#00BAFF" d="M27.754,47.171l-2.898-2.898l2.898-2.898l2.898,2.898L27.754,47.171"/>
		<path id="Fill-6" fill="#00A5F0" d="M39.793,52.967l-2.898-2.898l2.898-2.898l2.898,2.898L39.793,52.967"/>
		<path id="Fill-7" fill="#26C2FF" d="M36.672,50.069l-2.898-2.898l2.898-2.898l2.898,2.898L36.672,50.069"/>
		<path id="Fill-8" fill="#00BCFB" d="M33.774,47.171l-2.898-2.898l2.898-2.898l2.898,2.898L33.774,47.171"/>
		<path id="Fill-9" fill="#00C3FA" d="M30.875,44.273l-2.898-2.898l2.898-2.898l2.898,2.898L30.875,44.273"/>
		<path id="Fill-10" fill="#00B2FB" d="M42.691,50.069l-2.898-2.898l2.898-2.898l2.898,2.898L42.691,50.069"/>
		<path id="Fill-11" fill="#00BDF8" d="M39.793,47.171l-2.898-2.898l2.898-2.898l2.898,2.898L39.793,47.171"/>
		<path id="Fill-12" fill="#00D3FF" d="M36.672,44.273l-2.898-2.898l2.898-2.898l2.898,2.898L36.672,44.273"/>
		<path id="Fill-13" fill="#00D3EE" d="M33.774,41.375l-2.898-2.898l2.898-2.675l2.898,2.898L33.774,41.375"/>
		<path id="Fill-14" fill="#00A9FF" d="M45.589,64.56l-2.898-2.898l2.898-2.898l2.898,2.898L45.589,64.56"/>
		<path id="Fill-15" fill="#02A3ED" d="M48.711,61.662l-2.898-2.898l2.898-2.898l2.898,2.898L48.711,61.662"/>
		<path id="Fill-16" fill="#03B2FB" d="M51.609,58.764l-2.898-2.898l2.898-2.898l2.898,2.898L51.609,58.764"/>
		<path id="Fill-17" fill="#19C0FF" d="M54.507,55.866l-2.898-2.898l2.898-2.898l2.898,2.898L54.507,55.866"/>
		<path id="Fill-18" fill="#07BCF8" d="M57.628,52.967l-2.898-2.898l2.898-2.898l2.898,2.898L57.628,52.967"/>
		<path id="Fill-19" fill="#07BAED" d="M60.526,50.069l-2.898-2.898l2.898-2.898l2.898,2.898L60.526,50.069"/>
		<path id="Fill-20" fill="#09C5F3" d="M63.425,47.171l-2.898-2.898l2.898-2.898l2.898,2.898L63.425,47.171"/>
		<path id="Fill-21" fill="#0CCAF2" d="M66.546,44.273l-2.898-2.898l2.898-2.898l2.898,2.898L66.546,44.273"/>
		<path id="Fill-22" fill="#0FDAFC" d="M69.444,41.375l-2.898-2.898l2.898-2.675l2.898,2.898L69.444,41.375"/>
		<path id="Fill-23" fill="#0FD3EE" d="M72.342,38.699l-2.898-2.898l2.898-2.898l2.898,2.898L72.342,38.699"/>
		<path id="Fill-24" fill="#11E2F8" d="M75.463,35.801l-2.898-2.898l2.898-2.898l2.898,2.898L75.463,35.801"/>
		<path id="Fill-25" fill="#13DDEB" d="M78.362,32.903l-2.898-2.898l2.898-2.898l2.898,2.898L78.362,32.903"/>
		<path id="Fill-26" fill="#16F8FF" d="M81.26,30.005l-2.898-2.898l2.898-2.898l2.898,2.898L81.26,30.005"/>
		<path id="Fill-27" fill="#16E6E6" d="M84.381,27.106l-2.898-2.898l2.898-2.898l2.898,2.898L84.381,27.106"/>
		<path id="Fill-28" fill="#0FAFFF" d="M42.691,61.662l-2.898-2.898l2.898-2.898l2.898,2.898L42.691,61.662"/>
		<path id="Fill-29" fill="#0EB3FD" d="M45.589,58.764l-2.898-2.898l2.898-2.898l2.898,2.898L45.589,58.764"/>
		<path id="Fill-30" fill="#0DBAFF" d="M48.711,55.866l-2.898-2.898l2.898-2.898l2.898,2.898L48.711,55.866"/>
		<path id="Fill-31" fill="#0CBCF9" d="M51.609,52.967l-2.898-2.898l2.898-2.898l2.898,2.898L51.609,52.967"/>
		<path id="Fill-32" fill="#09C6FF" d="M54.507,50.069l-2.898-2.898l2.898-2.898l2.898,2.898L54.507,50.069"/>
		<path id="Fill-33" fill="#08C4F6" d="M57.628,47.171l-2.898-2.898l2.898-2.898l2.898,2.898L57.628,47.171"/>
		<path id="Fill-34" fill="#07C3ED" d="M60.526,44.273l-2.898-2.898l2.898-2.898l2.898,2.898L60.526,44.273"/>
		<path id="Fill-35" fill="#07D8FF" d="M63.425,41.375l-2.898-2.675l2.898-2.898l2.898,2.898L63.425,41.375"/>
		<path id="Fill-36" fill="#06D1F0" d="M66.546,38.699l-2.898-2.898l2.898-2.898l2.898,2.898L66.546,38.699"/>
		<path id="Fill-37" fill="#05D5EE" d="M69.444,35.801l-2.898-2.898l2.898-2.898l2.898,2.898L69.444,35.801"/>
		<path id="Fill-38" fill="#03D9EC" d="M72.342,32.903l-2.898-2.898l2.898-2.898l2.898,2.898L72.342,32.903"/>
		<path id="Fill-39" fill="#02E3F0" d="M75.463,30.005l-2.898-2.898l2.898-2.898l2.898,2.898L75.463,30.005"/>
		<path id="Fill-40" fill="#01E2E8" d="M78.362,27.106l-2.898-2.898l2.898-2.898l2.898,2.898L78.362,27.106"/>
		<path id="Fill-41" fill="#00F2F2" d="M81.26,24.208l-2.898-2.898l2.898-2.898l2.898,2.898L81.26,24.208"/>
		<path id="Fill-42" fill="#19B2FF" d="M39.793,58.764l-2.898-2.898l2.898-2.898l2.898,2.898L39.793,58.764"/>
		<path id="Fill-43" fill="#1BB8FF" d="M42.691,55.866l-2.898-2.898l2.898-2.898l2.898,2.898L42.691,55.866"/>
		<path id="Fill-44" fill="#33C4FF" d="M45.589,52.967l-2.898-2.898l2.898-2.898l2.898,2.898L45.589,52.967"/>
		<path id="Fill-45" fill="#1CB4EC" d="M48.711,50.069l-2.898-2.898l2.898-2.898l2.898,2.898L48.711,50.069"/>
		<path id="Fill-46" fill="#1FC2F4" d="M51.609,47.171l-2.898-2.898l2.898-2.898l2.898,2.898L51.609,47.171"/>
		<path id="Fill-47" fill="#23D1FF" d="M54.507,44.273l-2.898-2.898l2.898-2.898l2.898,2.898L54.507,44.273"/>
		<path id="Fill-48" fill="#23CAEF" d="M57.628,41.375l-2.898-2.898l2.898-2.898l2.898,2.898L57.628,41.375"/>
		<path id="Fill-49" fill="#22C4E0" d="M60.526,38.699l-2.898-2.898l2.898-2.898l2.898,2.898L60.526,38.699"/>
		<path id="Fill-50" fill="#26D2E9" d="M63.425,35.801l-2.898-2.898l2.898-2.898l2.898,2.898L63.425,35.801"/>
		<path id="Fill-51" fill="#2CECFF" d="M66.546,32.903l-2.898-2.898l2.898-2.898l2.898,2.898L66.546,32.903"/>
		<path id="Fill-52" fill="#29DAE4" d="M69.444,30.005l-2.898-2.898l2.898-2.898l2.898,2.898L69.444,30.005"/>
		<path id="Fill-53" fill="#2BDEE1" d="M72.342,27.106l-2.898-2.898l2.898-2.898l2.898,2.898L72.342,27.106"/>
		<path id="Fill-54" fill="#2CE2DF" d="M75.463,24.208l-2.898-2.898l2.898-2.898l2.898,2.898L75.463,24.208"/>
		<path id="Fill-55" fill="#2FECE0" d="M78.362,21.31l-2.898-2.898l2.898-2.898l2.898,2.898L78.362,21.31"/>
	</g>
</g>
</svg>
