<?xml version="1.0" encoding="utf-8"?>
<!-- Generator: Adobe Illustrator 21.1.0, SVG Export Plug-In . SVG Version: 6.00 Build 0)  -->
<svg version="1.1" id="Layer_1" xmlns="http://www.w3.org/2000/svg" xmlns:xlink="http://www.w3.org/1999/xlink" x="0px" y="0px"
	 viewBox="0 0 128.2 128.2" style="enable-background:new 0 0 128.2 128.2;" xml:space="preserve">
<style type="text/css">
	.st0{fill:#F05A24;}
	.st1{fill:#FBF9F8;}
	.st2{fill:#EE5924;}
	.st3{fill:#FE9320;}
	.st4{fill:#999999;}
	.st5{fill:#676767;}
	.st6{fill:#9A9A9A;}
	.st7{fill:#F05D28;}
	.st8{fill:#6A6A6A;}
	.st9{fill:none;stroke:#FBF9F8;stroke-width:1.1489;stroke-linecap:round;stroke-miterlimit:10;}
</style>
<g>
	<path class="st0" d="M33.5,81c-4.2-4.3-7.3-9.3-9.4-14.9c-2-5.2-2.9-10.5-2.8-16.1c0.4-14.1,6.2-25.7,17.4-34.4
		C45,10.8,52,7.9,59.8,7c14-1.6,26.2,2.4,36.4,12.3c6.9,6.6,11.1,14.8,12.6,24.2c2,13-1.1,24.8-9.4,35C93,86.4,84.8,91.5,74.9,93.6
		C62.6,96.3,51.1,94,40.5,87c0.9-0.7,1.8-1.3,2.7-2c4.2-3.5,8.5-7,12.7-10.5C60,71,64,67.5,67.5,63.6c3.4-3.8,6.4-7.7,8.6-12.3
		c1.5-3.2,2.5-6.5,2.3-10.1c0-0.1,0.1-0.2,0.1-0.3c5.6,3.3,12.7,0.8,15.1-3.3c2.3-3.9,2.7-9.3-1-13.2c-3.7-3.9-8.9-5-13.8-2.4
		c-2.2,1.2-3.8,3.1-4.7,5.4c-1.2,3-1,6,0.3,8.9c-0.1,0-0.1,0.1-0.2,0.1c-0.4,0-0.9,0-1.3,0c-3.4-0.1-6.6,0.6-9.5,2.4
		c-1.2,0.8-2.4,1.6-3.6,2.4C55.6,44.3,51.8,48,48.3,52c-4.4,5-8.7,10.2-13,15.3c-0.3,0.3-0.5,0.6-0.3,1.1c0.3,0.4,0.7,0.3,1.1,0.2
		c3.6-0.8,7.1-1.5,10.7-2.3c0.3-0.1,0.7-0.1,1.2-0.1c-0.3,0.4-0.5,0.6-0.7,0.8c-1.7,1.8-3.4,3.6-5.1,5.3C39.3,75.1,36.4,78,33.5,81z
		"/>
	<path class="st1" d="M33.5,81c2.9-2.9,5.7-5.9,8.6-8.8c1.7-1.8,3.4-3.6,5.1-5.3c0.2-0.2,0.3-0.4,0.7-0.8c-0.6,0.1-0.9,0.1-1.2,0.1
		c-3.6,0.8-7.1,1.5-10.7,2.3c-0.4,0.1-0.8,0.2-1.1-0.2c-0.3-0.4,0-0.7,0.3-1.1c4.3-5.1,8.6-10.2,13-15.3c3.5-4,7.4-7.6,11.6-10.8
		c1.2-0.9,2.4-1.6,3.6-2.4c2.9-1.8,6.1-2.5,9.5-2.4c0.4,0,0.9,0,1.3,0c0,0,0.1,0,0.2-0.1c-1.3-2.9-1.5-5.9-0.3-8.9
		c1-2.3,2.5-4.2,4.7-5.4c4.9-2.7,10.1-1.6,13.8,2.4c3.7,3.9,3.3,9.3,1,13.2c-2.5,4.1-9.5,6.6-15.1,3.3c0,0.1-0.1,0.2-0.1,0.3
		c0.2,3.6-0.8,6.9-2.3,10.1c-2.2,4.6-5.2,8.6-8.6,12.3C64,67.5,60,71,55.9,74.4c-4.2,3.5-8.4,7-12.7,10.5c-0.9,0.7-1.8,1.3-2.7,2
		c-2.4,1.5-4.8,3-7.4,4.5c0.2,1,0.5,2.1,0.7,3.2c0.5,2,1,4.1,1.4,6.1c0,0.1,0.1,0.3,0.1,0.4c-0.1,0.3-0.1,0.7-0.3,0.7
		c-0.2,0.1-0.7,0-0.9-0.2c-0.6-0.6-1.2-1.2-1.8-1.8c-0.3-0.2-0.5-0.5-0.8-0.7c-2.4-2.4-4.8-4.7-7.2-7.1c-0.8-0.9-0.8-0.9,0-1.8
		c2.8-2.9,5.6-5.8,8.4-8.7C33.1,81.5,33.3,81.2,33.5,81z M75.7,38.1c-0.6-0.2-1-0.3-1.4-0.4c-1.9-0.4-3.8-0.1-5.7,0.3
		c-3,0.6-5.4,2.3-7.8,4c-4.1,3-7.8,6.5-11.2,10.3c-1.7,1.8-3.3,3.8-5,5.7c2,1.9,3.9,3.7,5.9,5.5C58.9,55.1,67.2,46.7,75.7,38.1z
		 M57.1,71.7c-0.5-0.5-1-1-1.4-1.5c-0.4-0.4-0.7-0.5-1.2-0.4c-3.1,0.6-6.1,1.1-9.2,1.7c-0.6,0.1-1,0.4-1.4,0.8
		c-6,6.2-11.9,12.3-17.9,18.5c-0.2,0.2-0.3,0.4-0.5,0.6c1.6,1.9,7.2,7.2,8,7.5c-0.1-0.4-0.1-0.8-0.2-1.1c-0.4-2-0.9-3.9-1.4-5.9
		c-0.3-1.1-0.2-1.2,0.8-1.7c3.8-2,7.5-4.3,10.8-7.1c4.1-3.3,8.1-6.8,12.1-10.2C56.1,72.5,56.6,72.1,57.1,71.7z M55.2,67.9
		c0.2-0.2,0.4-0.3,0.5-0.5c6.1-6.2,12.3-12.4,18.3-18.7c1.1-1.1,2-2.5,2.8-3.8c0.9-1.5,0.8-3.1,0.4-4.8c-0.1-0.4-0.4-0.7-0.7-1.2
		C68.2,47.6,59.8,56,51.4,64.4C52.7,65.6,53.9,66.7,55.2,67.9z M90.2,23.9c-3.7-3.1-9.4-2.6-12.9,1c-3.4,3.5-3.5,9.3-0.2,13
		c2.6,3,8.2,4.3,10.7,2.4c-2.1-2.2-4.2-4.4-6.2-6.6c-0.9-1-0.9-1.1,0-2c1.9-1.8,3.8-3.5,5.8-5.3C88.3,25.7,89.2,24.8,90.2,23.9z
		 M82.4,32.8c2.3,2.4,4.5,4.8,6.7,7.2c5.2-2.3,7.1-10.8,2.1-15.2C88.3,27.4,85.4,30.1,82.4,32.8z M75.7,48.9
		c-0.1-0.1-0.2-0.1-0.2-0.2C69,55.4,62.5,62,56,68.6c0.8,0.7,1.5,1.4,2.2,2.1c0.3-0.2,0.5-0.4,0.7-0.5c3.7-3.2,7.2-6.6,10.2-10.4
		c2.4-3,4.6-6.2,6.2-9.8C75.5,49.6,75.6,49.3,75.7,48.9z M48.7,64.4c-1.7-1.7-3.4-3.4-5.1-5.1c-2.1,2.4-4.2,4.9-6.3,7.4
		c0,0.1,0.1,0.1,0.1,0.2C41.3,66,45,65.2,48.7,64.4z M50.6,65.3c-1.5,1.5-2.9,3-4.3,4.5c0,0.1,0.1,0.1,0.1,0.2
		c2.5-0.5,5-0.9,7.7-1.4C52.8,67.5,51.7,66.4,50.6,65.3z M75.8,48.6L75.8,48.6L75.8,48.6L75.8,48.6z M33.5,99.1L33.5,99.1L33.5,99.1
		L33.5,99.1z"/>
	<path class="st2" d="M24.4,92.2c2.4,2.4,4.8,4.7,7.2,7.1c-2.2,0.1-4.3,0.2-6.5,0.3c-2.3,0.1-4.7,0.2-7,0.2c-0.3,0-0.6,0-1.2,0
		C19.5,97.2,22,94.7,24.4,92.2z"/>
	<path class="st3" d="M75.7,38.1c-8.5,8.6-16.8,16.9-25.2,25.4c-2-1.8-3.9-3.6-5.9-5.5c1.7-1.9,3.3-3.9,5-5.7
		c3.4-3.7,7.1-7.3,11.2-10.3c2.4-1.7,4.8-3.4,7.8-4c1.9-0.4,3.8-0.7,5.7-0.3C74.7,37.9,75.1,38,75.7,38.1z"/>
	<path class="st4" d="M57.1,71.7c-0.5,0.5-1,0.9-1.5,1.3c-4,3.4-8,6.8-12.1,10.2c-3.4,2.7-7,5-10.8,7.1c-1,0.5-1,0.6-0.8,1.7
		c0.5,2,0.9,3.9,1.4,5.9c0.1,0.3,0.1,0.7,0.2,1.1c-0.8-0.3-6.3-5.6-8-7.5c0.1-0.2,0.3-0.4,0.5-0.6c6-6.2,11.9-12.3,17.9-18.5
		c0.4-0.4,0.8-0.7,1.4-0.8c3.1-0.5,6.2-1.1,9.2-1.7c0.5-0.1,0.9,0,1.2,0.4C56.1,70.7,56.6,71.1,57.1,71.7z"/>
	<path class="st5" d="M55.2,67.9c-1.3-1.2-2.5-2.3-3.8-3.5c8.4-8.4,16.7-16.8,25.1-25.3c0.3,0.5,0.6,0.8,0.7,1.2
		c0.4,1.6,0.5,3.3-0.4,4.8c-0.8,1.3-1.7,2.7-2.8,3.8C68,55.1,61.8,61.3,55.7,67.5C55.6,67.6,55.4,67.7,55.2,67.9z"/>
	<path class="st4" d="M90.2,23.9c-1,0.9-1.9,1.7-2.8,2.6c-1.9,1.8-3.8,3.5-5.8,5.3c-1,0.9-1,1,0,2c2.1,2.2,4.2,4.4,6.2,6.6
		c-2.5,1.9-8.1,0.6-10.7-2.4c-3.3-3.7-3.2-9.5,0.2-13C80.7,21.4,86.4,20.9,90.2,23.9z"/>
	<path class="st5" d="M82.4,32.8c3-2.7,5.9-5.4,8.8-8.1c5,4.4,3.1,13-2.1,15.2C86.9,37.6,84.7,35.2,82.4,32.8z"/>
	<path class="st6" d="M75.7,48.9c-0.1,0.4-0.2,0.7-0.4,1.1c-1.6,3.6-3.8,6.8-6.2,9.8c-3.1,3.8-6.5,7.2-10.2,10.4
		c-0.2,0.2-0.4,0.3-0.7,0.5c-0.7-0.7-1.4-1.3-2.2-2.1c6.5-6.7,13-13.3,19.5-19.9C75.6,48.8,75.6,48.9,75.7,48.9z"/>
	<path class="st7" d="M48.7,64.4c-3.7,0.8-7.5,1.6-11.2,2.4c0-0.1-0.1-0.1-0.1-0.2c2.1-2.5,4.2-5,6.3-7.4C45.4,61,47,62.7,48.7,64.4
		z"/>
	<path class="st8" d="M50.6,65.3c1.2,1.1,2.3,2.1,3.5,3.3c-2.7,0.5-5.2,0.9-7.7,1.4c0-0.1-0.1-0.1-0.1-0.2
		C47.7,68.4,49.1,66.9,50.6,65.3z"/>
	<polygon class="st6" points="75.8,48.6 75.8,48.5 75.8,48.5 	"/>
	<polygon class="st4" points="33.5,99.1 33.5,99.2 33.5,99.1 	"/>
</g>
<path class="st9" d="M89.2,31.5c0.5,1.8,0.5,3-0.2,4.1"/>
<g>
	<path class="st0" d="M4.9,121.6v4.8c0,0.5-0.4,0.9-0.8,0.9c-0.4,0-0.8-0.4-0.8-0.9v-13.1c0-0.5,0.5-1,1-1h3.1
		c3.5,0,4.7,2.2,4.7,4.7c0,3-1.8,4.6-4.7,4.6H4.9z M4.9,120h2.4c2,0,3-1,3-3c0-1.5-0.6-3-3-3H4.9V120z"/>
	<path class="st0" d="M21.3,121.9v-4.5c0-2.9,1.4-5.3,4.8-5.3c3.4,0,4.8,2.4,4.8,5.3v4.5c0,3-1.6,5.3-4.8,5.3
		C22.9,127.3,21.3,124.9,21.3,121.9z M23,117.5v4.5c0,2.2,1,3.7,3.1,3.7c2.2,0,3.1-1.5,3.1-3.7v-4.5c0-2.2-0.8-3.7-3.1-3.7
		C23.8,113.8,23,115.2,23,117.5z"/>
	<path class="st0" d="M45.8,121c-2-1-5.5-1.1-5.5-4.8c0-2.5,1.6-4.1,4.2-4.1c1,0,3.6,0.3,3.6,1.4c0,0.4-0.3,0.8-0.8,0.8
		c-0.6,0-1.2-0.6-2.6-0.6c-1.3,0-2.6,0.5-2.6,2.3c0,1.4,0.7,1.8,1.2,2.1c2,1,5.5,1.1,5.5,4.7c0,2.8-1.9,4.3-4.6,4.3
		c-1.3,0-3.8-0.4-3.8-1.5c0-0.4,0.3-0.8,0.8-0.8c0.6,0,1.5,0.7,3.1,0.7c1.9,0,2.8-0.9,2.8-2.6C46.9,121.7,46.3,121.2,45.8,121z"/>
	<path class="st0" d="M61.2,114h-2.8c-0.5,0-0.8-0.4-0.8-0.8c0-0.4,0.4-0.8,0.8-0.8h7.4c0.4,0,0.9,0.4,0.9,0.8
		c0,0.4-0.4,0.8-0.9,0.8h-2.8v12.5c0,0.4-0.4,0.8-0.8,0.8c-0.5,0-0.8-0.4-0.8-0.8V114z"/>
	<path class="st0" d="M87.7,126.5c0,0.4-0.4,0.8-0.8,0.8c-0.5,0-0.9-0.4-0.9-0.8v-10.2l-3.4,7.2c-0.2,0.3-0.5,0.5-0.8,0.5
		c-0.3,0-0.6-0.2-0.8-0.5l-3.4-7.2v10.2c0,0.4-0.4,0.8-0.9,0.8c-0.4,0-0.8-0.4-0.8-0.8V113c0-0.5,0.4-0.9,0.9-0.9
		c0.4,0,0.7,0.2,0.9,0.5l4.1,8.7l4.1-8.8c0.2-0.4,0.5-0.5,0.9-0.5c0.5,0,0.9,0.4,0.9,0.9V126.5z"/>
	<path class="st0" d="M98.8,126.7c-0.1,0.4-0.5,0.6-0.8,0.6c-0.5,0-0.9-0.3-0.9-0.8c0-0.1,0-0.3,0-0.3l4.1-12.9
		c0.2-0.6,0.5-1.1,1.1-1.1c0.6,0,0.9,0.5,1.1,1.1l4.1,12.9c0,0.1,0,0.2,0,0.3c0,0.5-0.4,0.8-0.9,0.8c-0.3,0-0.7-0.3-0.8-0.6
		l-0.9-2.9h-5.3L98.8,126.7z M100.2,122.1h4.3l-2.2-7.1L100.2,122.1z"/>
	<path class="st0" d="M124.8,126.8l-6-11.1v10.8c0,0.5-0.4,0.9-0.9,0.9c-0.5,0-0.8-0.4-0.8-0.9v-13.4c0-0.5,0.4-0.9,0.9-0.9
		c0.4,0,0.7,0.2,0.9,0.5l6,11.1V113c0-0.5,0.4-0.9,0.9-0.9c0.5,0,0.8,0.4,0.8,0.9v13.4c0,0.5-0.4,0.9-0.9,0.9
		C125.3,127.3,125,127.1,124.8,126.8z"/>
</g>
</svg>
